<svg width="100" height="100" viewBox="0 0 100 100" fill="none" xmlns="http://www.w3.org/2000/svg">
<path d="M71.875 12.5001H28.125C24.8098 12.5001 21.6304 13.8171 19.2862 16.1613C16.942 18.5055 15.625 21.6849 15.625 25.0001V81.2501C15.625 82.9077 16.2835 84.4974 17.4556 85.6695C18.6277 86.8416 20.2174 87.5001 21.875 87.5001H31.25C32.9076 87.5001 34.4973 86.8416 35.6694 85.6695C36.8415 84.4974 37.5 82.9077 37.5 81.2501V75.0001H62.5V81.2501C62.5 82.9077 63.1585 84.4974 64.3306 85.6695C65.5027 86.8416 67.0924 87.5001 68.75 87.5001H78.125C79.7826 87.5001 81.3723 86.8416 82.5444 85.6695C83.7165 84.4974 84.375 82.9077 84.375 81.2501V25.0001C84.375 21.6849 83.058 18.5055 80.7138 16.1613C78.3696 13.8171 75.1902 12.5001 71.875 12.5001ZM21.875 68.7501V46.8751H78.125V68.7501H21.875ZM21.875 31.2501H78.125V40.6251H21.875V31.2501ZM28.125 18.7501H71.875C73.5326 18.7501 75.1223 19.4086 76.2944 20.5807C77.4665 21.7528 78.125 23.3425 78.125 25.0001H21.875C21.875 23.3425 22.5335 21.7528 23.7056 20.5807C24.8777 19.4086 26.4674 18.7501 28.125 18.7501ZM31.25 81.2501H21.875V75.0001H31.25V81.2501ZM68.75 81.2501V75.0001H78.125V81.2501H68.75ZM40.625 57.8126C40.625 58.7397 40.3501 59.646 39.835 60.4169C39.3199 61.1877 38.5879 61.7885 37.7313 62.1433C36.8748 62.4981 35.9323 62.5909 35.023 62.4101C34.1137 62.2292 33.2785 61.7827 32.6229 61.1272C31.9674 60.4716 31.5209 59.6364 31.3401 58.7271C31.1592 57.8178 31.252 56.8753 31.6068 56.0188C31.9616 55.1623 32.5624 54.4302 33.3333 53.9151C34.1041 53.4 35.0104 53.1251 35.9375 53.1251C37.1807 53.1251 38.373 53.619 39.2521 54.4981C40.1311 55.3771 40.625 56.5694 40.625 57.8126ZM68.75 57.8126C68.75 58.7397 68.4751 59.646 67.96 60.4169C67.4449 61.1877 66.7129 61.7885 65.8563 62.1433C64.9998 62.4981 64.0573 62.5909 63.148 62.4101C62.2387 62.2292 61.4035 61.7827 60.7479 61.1272C60.0924 60.4716 59.6459 59.6364 59.4651 58.7271C59.2842 57.8178 59.377 56.8753 59.7318 56.0188C60.0866 55.1623 60.6874 54.4302 61.4583 53.9151C62.2291 53.4 63.1354 53.1251 64.0625 53.1251C65.3057 53.1251 66.498 53.619 67.3771 54.4981C68.2561 55.3771 68.75 56.5694 68.75 57.8126ZM96.875 31.2501V40.6251C96.875 41.4539 96.5458 42.2488 95.9597 42.8348C95.3737 43.4209 94.5788 43.7501 93.75 43.7501C92.9212 43.7501 92.1263 43.4209 91.5403 42.8348C90.9542 42.2488 90.625 41.4539 90.625 40.6251V31.2501C90.625 30.4213 90.9542 29.6265 91.5403 29.0404C92.1263 28.4544 92.9212 28.1251 93.75 28.1251C94.5788 28.1251 95.3737 28.4544 95.9597 29.0404C96.5458 29.6265 96.875 30.4213 96.875 31.2501ZM9.375 31.2501V40.6251C9.375 41.4539 9.04576 42.2488 8.45971 42.8348C7.87366 43.4209 7.0788 43.7501 6.25 43.7501C5.4212 43.7501 4.62634 43.4209 4.04029 42.8348C3.45424 42.2488 3.125 41.4539 3.125 40.6251V31.2501C3.125 30.4213 3.45424 29.6265 4.04029 29.0404C4.62634 28.4544 5.4212 28.1251 6.25 28.1251C7.0788 28.1251 7.87366 28.4544 8.45971 29.0404C9.04576 29.6265 9.375 30.4213 9.375 31.2501Z" fill="white"/>
</svg>
