<svg width="100" height="101" viewBox="0 0 100 101" fill="none" xmlns="http://www.w3.org/2000/svg">
<path d="M49.9998 50.893C45.4165 50.893 41.4929 49.2611 38.229 45.9972C34.9651 42.7333 33.3332 38.8097 33.3332 34.2264C33.3332 29.643 34.9651 25.7194 38.229 22.4555C41.4929 19.1916 45.4165 17.5597 49.9998 17.5597C54.5832 17.5597 58.5068 19.1916 61.7707 22.4555C65.0346 25.7194 66.6665 29.643 66.6665 34.2264C66.6665 38.8097 65.0346 42.7333 61.7707 45.9972C58.5068 49.2611 54.5832 50.893 49.9998 50.893ZM16.6665 84.2264V72.5597C16.6665 70.1986 17.2748 68.0291 18.4915 66.0514C19.7082 64.0736 21.3221 62.5625 23.3332 61.518C27.6387 59.3652 32.0137 57.7514 36.4582 56.6764C40.9026 55.6014 45.4165 55.0625 49.9998 55.0597C54.5832 55.0569 59.0971 55.5958 63.5415 56.6764C67.9859 57.7569 72.3609 59.3708 76.6665 61.518C78.6804 62.5597 80.2957 64.0708 81.5123 66.0514C82.729 68.0319 83.3359 70.2014 83.3332 72.5597V84.2264H16.6665ZM24.9998 75.893H74.9998V72.5597C74.9998 71.7958 74.8096 71.1014 74.429 70.4764C74.0485 69.8514 73.5443 69.3652 72.9165 69.018C69.1665 67.143 65.3818 65.7375 61.5623 64.8014C57.7429 63.8652 53.8887 63.3958 49.9998 63.393C46.1109 63.3902 42.2568 63.8597 38.4373 64.8014C34.6179 65.743 30.8332 67.1486 27.0832 69.018C26.4582 69.3652 25.954 69.8514 25.5707 70.4764C25.1873 71.1014 24.9971 71.7958 24.9998 72.5597V75.893ZM49.9998 42.5597C52.2915 42.5597 54.254 41.7444 55.8873 40.1139C57.5207 38.4833 58.3359 36.5208 58.3332 34.2264C58.3304 31.9319 57.5151 29.9708 55.8873 28.343C54.2596 26.7152 52.2971 25.8986 49.9998 25.893C47.7026 25.8875 45.7415 26.7041 44.1165 28.343C42.4915 29.9819 41.6748 31.943 41.6665 34.2264C41.6582 36.5097 42.4748 38.4722 44.1165 40.1139C45.7582 41.7555 47.7193 42.5708 49.9998 42.5597Z" fill="white"/>
</svg>
