<svg width="246" height="374" viewBox="0 0 246 374" fill="none" xmlns="http://www.w3.org/2000/svg">
<path d="M226.923 121.931C219.2 132.318 212.817 143.198 204.264 151.958C197.824 158.555 189.039 163.497 180.422 167.052C176.414 168.705 170.326 165.318 163.693 163.897C160.11 172.972 155.595 183.196 152.178 193.775C151.106 197.092 152.31 201.623 153.657 205.144C156.607 212.857 155.222 220.069 151.715 226.835C147.863 234.268 147.441 241.037 153.186 247.463C159.444 254.464 154.809 261.626 153.243 268.424C152.094 273.409 151.962 275.191 157.865 275.743C166.506 276.551 174.972 279.128 183.609 280.105C190.592 280.895 190.615 284.651 189.203 289.738C187.907 294.41 185.957 298.996 185.386 303.751C184.488 311.218 188.889 314.338 195.74 311.715C199.285 310.357 203.862 306.766 206.082 307.897C210.785 310.293 214.723 314.749 218.1 319.048C222.534 324.691 220.794 329.279 213.548 331.104C203.996 333.509 196.674 338.533 188.933 344.827C177.17 354.394 163.787 362.497 146.844 361.69C140.691 361.397 133.908 364.76 128.17 367.858C121.803 371.296 116.875 371.636 111.45 366.458C108.956 364.078 105.396 362.813 102.106 360.919C99.5057 364.51 97.26 367.94 94.6753 371.092C91.6941 374.728 84.4413 373.657 83.7026 369.305C80.8132 352.281 78.0749 335.221 75.8452 318.101C75.2651 313.647 76.192 308.784 77.3571 304.354C81.2098 289.703 80.2281 276.461 69.3745 264.582C60.0645 254.393 54.1811 242.548 52.6269 228.26C51.2939 216.005 43.1198 206.325 35.7658 196.961C20.0143 176.905 9.71144 154.056 0.209494 130.736C-0.378196 129.294 0.351989 126.685 1.39001 125.319C5.93952 119.33 10.5176 113.307 15.6548 107.831C28.8127 93.8055 42.85 80.565 55.4526 66.0689C68.1514 51.4622 79.2403 35.4668 91.6438 20.5877C97.585 13.4609 104.432 6.82113 111.895 1.36513C114.813 -0.767864 120.811 -0.0321787 124.953 1.08137C146.155 6.78086 167.199 13.0688 188.32 19.0706C198.871 22.0686 209.508 24.7677 220.018 27.898C222.327 28.5858 225.362 30.0523 226.195 31.971C232.973 47.5921 239.641 63.2833 245.506 79.2601C246.743 82.6294 245.468 87.7138 243.75 91.2252C238.709 101.532 232.861 111.445 226.923 121.931Z" fill="#DDDDDD"/>
</svg>
