<svg width="382" height="827" viewBox="0 0 382 827" fill="none" xmlns="http://www.w3.org/2000/svg">
<g filter="url(#filter0_dddd_297_38)">
<path fill-rule="evenodd" clip-rule="evenodd" d="M218.83 22.0067C208.631 38.4564 207.384 41.1055 205.744 49.8473C203.954 59.3945 182.195 87.2593 171.688 93.4617C167.992 95.6411 164.97 98.3253 164.97 99.4271C164.97 100.527 162.67 102.693 159.858 104.24C146.567 111.555 114.021 157.084 111.152 172.375C109.438 181.511 107.825 180.789 132.049 181.748C141.302 182.115 142.651 181.393 153.454 170.329C159.795 163.833 167.512 157.555 170.606 156.379C181.854 152.104 195.15 153.912 211.361 161.923C219.912 166.148 228.032 169.605 229.408 169.605C231.95 169.605 240.896 159.296 250.235 145.601C255.135 138.417 255.195 137.897 251.461 135.167C249.3 133.586 246.822 132.294 245.953 132.294C242.803 132.294 234.876 112.637 236.263 108.268C237.994 102.811 247.689 94.9827 252.717 94.9827C261.013 94.9827 264.834 86.7325 264.777 68.9615C264.727 53.5455 264.068 51.1181 256.67 39.0161C238.335 9.03119 229.373 5.0016 218.83 22.0067ZM174.846 160.606C168.341 162.557 160.581 168.128 160.581 170.847C160.581 173.538 153.235 180.256 145.61 184.536C142.807 186.109 131.991 188.363 121.575 189.549C111.161 190.732 102.241 192.095 101.759 192.577C99.4079 194.93 105.536 246.922 108.74 251.816C110.658 254.742 112.761 262.874 113.413 269.886C114.065 276.898 116.237 291.715 118.243 302.814C121.147 318.877 121.36 324.158 119.288 328.706C117.857 331.849 116.685 341.352 116.685 349.824C116.685 365.718 114.927 371.324 107.316 379.684C104.877 382.361 102.103 389.479 101.153 395.503C100.2 401.526 97.7772 409.916 95.7712 414.148C92.6942 420.629 92.2881 427.123 93.1836 455.392C93.7696 473.846 94.8933 490.504 95.6812 492.409C96.4692 494.316 94.2876 502.915 90.8308 511.517C86.292 522.815 81.9156 529.492 75.0768 535.562C65.727 543.861 65.5932 544.181 64.5111 561.035C63.4291 577.882 63.5081 578.2 70.4304 585.342C74.2888 589.323 81.582 593.82 86.6388 595.337C91.6977 596.854 98.5739 599.097 101.923 600.321C106.429 601.972 112.994 601.542 127.163 598.669C143.391 595.379 147.989 595.199 157.288 597.486C173.74 601.531 176.532 601.032 190.515 591.555C197.591 586.762 207.502 580.742 212.542 578.18C217.609 575.604 224.909 569.057 228.877 563.533C232.823 558.039 237.27 554.014 238.762 554.585C246.793 557.666 257.376 557.802 268.124 554.958C294.979 547.855 300.025 544.879 294.637 539.313C293.526 538.166 291.106 531.373 289.258 524.218C286.38 513.088 286.33 510.393 288.909 505.562C290.566 502.457 292.493 498.436 293.191 496.625C293.888 494.814 297.918 488.889 302.145 483.457C310.747 472.399 312.526 468.932 316.587 455.306C319.769 444.631 317.904 441.824 307.63 441.824C299.702 441.824 295.949 444.853 297.569 449.951C298.408 452.594 297.653 455.381 295.653 457.04C293.84 458.546 291.713 464.632 290.926 470.564C289.727 479.596 288.151 482.414 281.238 487.89C271.168 495.866 267.393 496.098 264.134 488.943C262.758 485.926 260.734 483.457 259.637 483.457C256.54 483.457 254.29 467.88 256.997 465.174C260.08 462.09 260.021 454.925 256.913 454.925C255.432 454.925 255.004 452.837 255.818 449.591C256.911 445.235 256.25 444.129 252.216 443.556C248.316 443 247.14 441.231 246.64 435.172C245.544 421.865 244.497 420.752 238.438 426.447C232.428 432.09 232.492 432.211 232.979 415.959C233.243 407.206 232.483 404.107 229.823 403.084C225.93 401.592 225.658 389.393 229.329 380.941C230.984 377.131 232.277 376.543 235.363 378.193C238.53 379.888 239.423 379.359 239.989 375.45C240.433 372.386 242.707 370.138 246.176 369.333C250.63 368.297 251.791 366.532 252.342 359.964C252.976 352.392 252.456 351.626 244.274 348.081C236.774 344.831 235.841 343.703 237.735 340.167C239.37 337.112 239.043 335.049 236.476 332.211C234.568 330.104 233.008 327.696 233.008 326.86C233.008 326.024 230.335 321.298 227.067 316.362C221.391 307.783 221.305 307.252 225.146 304.443C227.615 302.638 228.631 300.099 227.775 297.869C225.756 292.606 230.585 276.624 235.163 273.417C237.481 271.795 239.7 266.401 240.604 260.196C241.442 254.43 243.606 247.414 245.415 244.602C249.146 238.795 247.781 224.382 242.746 216.43C241.091 213.818 238.662 204.958 237.349 196.741C236.037 188.526 234.744 181.584 234.476 181.316C232.165 179.005 217.054 169.605 215.647 169.605C214.657 169.605 211.493 167.777 208.613 165.544C203.139 161.295 182.574 158.291 174.846 160.606ZM264.86 446.099C264.13 447.282 264.685 450.403 266.092 453.035C267.608 455.868 268.148 462.082 267.415 468.275C265.859 481.413 269.423 485.581 277.625 480.208C283.441 476.398 285.605 470.986 285.652 460.131C285.669 456.356 287.164 452.038 288.974 450.535C290.785 449.032 292.267 446.936 292.267 445.878C292.267 443.224 266.509 443.433 264.86 446.099Z" fill="#212329"/>
<path d="M157.277 132.952C159.103 132.952 160.583 131.472 160.583 129.646C160.583 127.82 159.103 126.34 157.277 126.34C155.452 126.34 153.971 127.82 153.971 129.646C153.971 131.472 155.452 132.952 157.277 132.952Z" stroke="url(#paint0_linear_297_38)" stroke-width="2.74346" stroke-linecap="round" stroke-linejoin="round"/>
<path d="M157.278 147.41C157.573 147.41 158.143 147.335 158.143 146.217C158.143 142.691 163.129 138.823 165.392 134.454C166.243 133.021 166.7 131.389 166.715 129.722C166.731 128.056 166.305 126.415 165.481 124.966C164.656 123.518 163.463 122.313 162.022 121.476C160.582 120.638 158.945 120.197 157.278 120.197C155.612 120.197 153.975 120.638 152.534 121.476C151.093 122.313 149.9 123.518 149.076 124.966C148.252 126.415 147.826 128.056 147.841 129.722C147.857 131.389 148.313 133.021 149.165 134.454C151.428 138.823 156.414 142.684 156.414 146.217C156.414 147.335 156.983 147.41 157.278 147.41Z" stroke="url(#paint1_linear_297_38)" stroke-width="2.74346" stroke-linecap="round" stroke-linejoin="round"/>
<path d="M139.72 192.211C141.545 192.211 143.026 190.731 143.026 188.905C143.026 187.08 141.545 185.6 139.72 185.6C137.894 185.6 136.414 187.08 136.414 188.905C136.414 190.731 137.894 192.211 139.72 192.211Z" stroke="url(#paint2_linear_297_38)" stroke-width="2.74346" stroke-linecap="round" stroke-linejoin="round"/>
<path d="M139.72 206.669C140.015 206.669 140.584 206.593 140.584 205.475C140.584 201.95 145.571 198.082 147.834 193.713C148.685 192.28 149.142 190.647 149.157 188.981C149.173 187.314 148.747 185.673 147.923 184.225C147.098 182.777 145.905 181.572 144.464 180.734C143.024 179.897 141.387 179.455 139.72 179.455C138.054 179.455 136.417 179.897 134.976 180.734C133.535 181.572 132.342 182.777 131.518 184.225C130.694 185.673 130.268 187.314 130.283 188.981C130.299 190.647 130.755 192.28 131.606 193.713C133.87 198.082 138.856 201.943 138.856 205.475C138.856 206.593 139.425 206.669 139.72 206.669Z" stroke="url(#paint3_linear_297_38)" stroke-width="2.74346" stroke-linecap="round" stroke-linejoin="round"/>
<path d="M146.304 233.912C148.129 233.912 149.61 232.432 149.61 230.606C149.61 228.78 148.129 227.3 146.304 227.3C144.478 227.3 142.998 228.78 142.998 230.606C142.998 232.432 144.478 233.912 146.304 233.912Z" stroke="url(#paint4_linear_297_38)" stroke-width="2.74346" stroke-linecap="round" stroke-linejoin="round"/>
<path d="M146.304 248.37C146.599 248.37 147.168 248.294 147.168 247.176C147.168 243.651 152.155 239.783 154.418 235.414C155.269 233.981 155.726 232.348 155.741 230.682C155.757 229.015 155.331 227.374 154.507 225.926C153.682 224.477 152.489 223.273 151.048 222.435C149.608 221.597 147.971 221.156 146.304 221.156C144.638 221.156 143.001 221.597 141.56 222.435C140.119 223.273 138.926 224.477 138.102 225.926C137.278 227.374 136.852 229.015 136.867 230.682C136.883 232.348 137.339 233.981 138.19 235.414C140.454 239.783 145.44 243.644 145.44 247.176C145.44 248.294 146.009 248.37 146.304 248.37Z" stroke="url(#paint5_linear_297_38)" stroke-width="2.74346" stroke-linecap="round" stroke-linejoin="round"/>
<path d="M163.862 251.47C165.688 251.47 167.168 249.99 167.168 248.164C167.168 246.338 165.688 244.858 163.862 244.858C162.036 244.858 160.556 246.338 160.556 248.164C160.556 249.99 162.036 251.47 163.862 251.47Z" stroke="url(#paint6_linear_297_38)" stroke-width="2.74346" stroke-linecap="round" stroke-linejoin="round"/>
<path d="M163.862 265.928C164.157 265.928 164.726 265.852 164.726 264.734C164.726 261.209 169.713 257.341 171.976 252.972C172.827 251.539 173.284 249.906 173.299 248.24C173.315 246.573 172.889 244.932 172.065 243.484C171.24 242.035 170.047 240.831 168.606 239.993C167.166 239.155 165.529 238.714 163.862 238.714C162.196 238.714 160.559 239.155 159.118 239.993C157.677 240.831 156.484 242.035 155.66 243.484C154.836 244.932 154.41 246.573 154.425 248.24C154.441 249.906 154.897 251.539 155.749 252.972C158.012 257.341 162.998 261.202 162.998 264.734C162.998 265.852 163.567 265.928 163.862 265.928Z" stroke="url(#paint7_linear_297_38)" stroke-width="2.74346" stroke-linecap="round" stroke-linejoin="round"/>
<path d="M196.783 205.38C198.609 205.38 200.089 203.9 200.089 202.074C200.089 200.248 198.609 198.768 196.783 198.768C194.957 198.768 193.477 200.248 193.477 202.074C193.477 203.9 194.957 205.38 196.783 205.38Z" stroke="url(#paint8_linear_297_38)" stroke-width="2.74346" stroke-linecap="round" stroke-linejoin="round"/>
<path d="M196.784 219.838C197.079 219.838 197.648 219.762 197.648 218.644C197.648 215.119 202.634 211.251 204.897 206.882C205.749 205.449 206.205 203.816 206.221 202.15C206.236 200.483 205.81 198.842 204.986 197.394C204.162 195.945 202.969 194.741 201.528 193.903C200.087 193.066 198.45 192.624 196.784 192.624C195.117 192.624 193.48 193.066 192.04 193.903C190.599 194.741 189.406 195.945 188.581 197.394C187.757 198.842 187.331 200.483 187.347 202.15C187.362 203.816 187.819 205.449 188.67 206.882C190.933 211.251 195.92 215.112 195.92 218.644C195.92 219.762 196.489 219.838 196.784 219.838Z" stroke="url(#paint9_linear_297_38)" stroke-width="2.74346" stroke-linecap="round" stroke-linejoin="round"/>
<path d="M181.42 222.938C183.246 222.938 184.726 221.458 184.726 219.632C184.726 217.807 183.246 216.326 181.42 216.326C179.594 216.326 178.114 217.807 178.114 219.632C178.114 221.458 179.594 222.938 181.42 222.938Z" stroke="url(#paint10_linear_297_38)" stroke-width="2.74346" stroke-linecap="round" stroke-linejoin="round"/>
<path d="M181.42 237.396C181.715 237.396 182.284 237.321 182.284 236.203C182.284 232.677 187.271 228.809 189.534 224.44C190.385 223.007 190.842 221.375 190.857 219.708C190.873 218.042 190.447 216.401 189.622 214.952C188.798 213.504 187.605 212.299 186.164 211.462C184.724 210.624 183.087 210.183 181.42 210.183C179.754 210.183 178.117 210.624 176.676 211.462C175.235 212.299 174.042 213.504 173.218 214.952C172.394 216.401 171.968 218.042 171.983 219.708C171.999 221.375 172.455 223.007 173.306 224.44C175.57 228.809 180.556 232.671 180.556 236.203C180.556 237.321 181.125 237.396 181.42 237.396Z" stroke="url(#paint11_linear_297_38)" stroke-width="2.74346" stroke-linecap="round" stroke-linejoin="round"/>
<path d="M212.147 269.028C213.972 269.028 215.453 267.548 215.453 265.722C215.453 263.896 213.972 262.416 212.147 262.416C210.321 262.416 208.841 263.896 208.841 265.722C208.841 267.548 210.321 269.028 212.147 269.028Z" stroke="url(#paint12_linear_297_38)" stroke-width="2.74346" stroke-linecap="round" stroke-linejoin="round"/>
<path d="M212.147 283.486C212.442 283.486 213.011 283.41 213.011 282.292C213.011 278.767 217.998 274.898 220.261 270.53C221.112 269.097 221.569 267.464 221.584 265.798C221.6 264.131 221.174 262.49 220.35 261.042C219.525 259.593 218.332 258.389 216.891 257.551C215.451 256.713 213.814 256.272 212.147 256.272C210.481 256.272 208.844 256.713 207.403 257.551C205.962 258.389 204.769 259.593 203.945 261.042C203.121 262.49 202.695 264.131 202.71 265.798C202.726 267.464 203.182 269.097 204.033 270.53C206.297 274.898 211.283 278.76 211.283 282.292C211.283 283.41 211.852 283.486 212.147 283.486Z" stroke="url(#paint13_linear_297_38)" stroke-width="2.74346" stroke-linecap="round" stroke-linejoin="round"/>
<path d="M223.121 315.118C224.946 315.118 226.426 313.638 226.426 311.812C226.426 309.986 224.946 308.506 223.121 308.506C221.295 308.506 219.815 309.986 219.815 311.812C219.815 313.638 221.295 315.118 223.121 315.118Z" stroke="url(#paint14_linear_297_38)" stroke-width="2.74346" stroke-linecap="round" stroke-linejoin="round"/>
<path d="M223.121 329.576C223.416 329.576 223.985 329.501 223.985 328.383C223.985 324.857 228.972 320.989 231.235 316.62C232.086 315.187 232.543 313.555 232.558 311.888C232.574 310.222 232.148 308.581 231.323 307.132C230.499 305.684 229.306 304.479 227.865 303.642C226.425 302.804 224.788 302.363 223.121 302.363C221.455 302.363 219.818 302.804 218.377 303.642C216.936 304.479 215.743 305.684 214.919 307.132C214.094 308.581 213.668 310.222 213.684 311.888C213.7 313.555 214.156 315.187 215.007 316.62C217.271 320.989 222.257 324.85 222.257 328.383C222.257 329.501 222.826 329.576 223.121 329.576Z" stroke="url(#paint15_linear_297_38)" stroke-width="2.74346" stroke-linecap="round" stroke-linejoin="round"/>
<path d="M124.356 490.699C126.182 490.699 127.662 489.219 127.662 487.393C127.662 485.567 126.182 484.087 124.356 484.087C122.53 484.087 121.05 485.567 121.05 487.393C121.05 489.219 122.53 490.699 124.356 490.699Z" stroke="url(#paint16_linear_297_38)" stroke-width="2.74346" stroke-linecap="round" stroke-linejoin="round"/>
<path d="M124.356 505.157C124.651 505.157 125.221 505.082 125.221 503.964C125.221 500.439 130.207 496.57 132.47 492.201C133.321 490.769 133.778 489.136 133.794 487.469C133.809 485.803 133.383 484.162 132.559 482.714C131.734 481.265 130.541 480.061 129.101 479.223C127.66 478.385 126.023 477.944 124.356 477.944C122.69 477.944 121.053 478.385 119.612 479.223C118.172 480.061 116.978 481.265 116.154 482.714C115.33 484.162 114.904 485.803 114.919 487.469C114.935 489.136 115.391 490.769 116.243 492.201C118.506 496.57 123.492 500.432 123.492 503.964C123.492 505.082 124.062 505.157 124.356 505.157Z" stroke="url(#paint17_linear_297_38)" stroke-width="2.74346" stroke-linecap="round" stroke-linejoin="round"/>
<path d="M150.693 306.339C152.519 306.339 153.999 304.859 153.999 303.033C153.999 301.207 152.519 299.727 150.693 299.727C148.868 299.727 147.387 301.207 147.387 303.033C147.387 304.859 148.868 306.339 150.693 306.339Z" stroke="url(#paint18_linear_297_38)" stroke-width="2.74346" stroke-linecap="round" stroke-linejoin="round"/>
<path d="M150.694 320.797C150.989 320.797 151.558 320.722 151.558 319.604C151.558 316.078 156.544 312.21 158.808 307.841C159.659 306.408 160.115 304.776 160.131 303.109C160.146 301.443 159.72 299.802 158.896 298.353C158.072 296.905 156.879 295.7 155.438 294.863C153.997 294.025 152.36 293.583 150.694 293.583C149.027 293.583 147.39 294.025 145.95 294.863C144.509 295.7 143.316 296.905 142.492 298.353C141.667 299.802 141.241 301.443 141.257 303.109C141.272 304.776 141.729 306.408 142.58 307.841C144.843 312.21 149.83 316.071 149.83 319.604C149.83 320.722 150.399 320.797 150.694 320.797Z" stroke="url(#paint19_linear_297_38)" stroke-width="2.74346" stroke-linecap="round" stroke-linejoin="round"/>
</g>
<defs>
<filter id="filter0_dddd_297_38" x="0" y="0" width="382" height="826.282" filterUnits="userSpaceOnUse" color-interpolation-filters="sRGB">
<feFlood flood-opacity="0" result="BackgroundImageFix"/>
<feColorMatrix in="SourceAlpha" type="matrix" values="0 0 0 0 0 0 0 0 0 0 0 0 0 0 0 0 0 0 127 0" result="hardAlpha"/>
<feOffset dy="10"/>
<feGaussianBlur stdDeviation="11"/>
<feColorMatrix type="matrix" values="0 0 0 0 0 0 0 0 0 0 0 0 0 0 0 0 0 0 0.1 0"/>
<feBlend mode="normal" in2="BackgroundImageFix" result="effect1_dropShadow_297_38"/>
<feColorMatrix in="SourceAlpha" type="matrix" values="0 0 0 0 0 0 0 0 0 0 0 0 0 0 0 0 0 0 127 0" result="hardAlpha"/>
<feOffset dy="40"/>
<feGaussianBlur stdDeviation="20"/>
<feColorMatrix type="matrix" values="0 0 0 0 0 0 0 0 0 0 0 0 0 0 0 0 0 0 0.09 0"/>
<feBlend mode="normal" in2="effect1_dropShadow_297_38" result="effect2_dropShadow_297_38"/>
<feColorMatrix in="SourceAlpha" type="matrix" values="0 0 0 0 0 0 0 0 0 0 0 0 0 0 0 0 0 0 127 0" result="hardAlpha"/>
<feOffset dy="91"/>
<feGaussianBlur stdDeviation="27"/>
<feColorMatrix type="matrix" values="0 0 0 0 0 0 0 0 0 0 0 0 0 0 0 0 0 0 0.05 0"/>
<feBlend mode="normal" in2="effect2_dropShadow_297_38" result="effect3_dropShadow_297_38"/>
<feColorMatrix in="SourceAlpha" type="matrix" values="0 0 0 0 0 0 0 0 0 0 0 0 0 0 0 0 0 0 127 0" result="hardAlpha"/>
<feOffset dy="161"/>
<feGaussianBlur stdDeviation="32"/>
<feColorMatrix type="matrix" values="0 0 0 0 0 0 0 0 0 0 0 0 0 0 0 0 0 0 0.01 0"/>
<feBlend mode="normal" in2="effect3_dropShadow_297_38" result="effect4_dropShadow_297_38"/>
<feBlend mode="normal" in="SourceGraphic" in2="effect4_dropShadow_297_38" result="shape"/>
</filter>
<linearGradient id="paint0_linear_297_38" x1="152.831" y1="145.349" x2="162.045" y2="144.995" gradientUnits="userSpaceOnUse">
<stop stop-color="#FFABAB"/>
<stop offset="0.53" stop-color="#C51515"/>
<stop offset="1" stop-color="#FFABAB"/>
</linearGradient>
<linearGradient id="paint1_linear_297_38" x1="144.585" y1="198.435" x2="170.909" y2="197.734" gradientUnits="userSpaceOnUse">
<stop stop-color="#FFABAB"/>
<stop offset="0.53" stop-color="#C51515"/>
<stop offset="1" stop-color="#FFABAB"/>
</linearGradient>
<linearGradient id="paint2_linear_297_38" x1="135.273" y1="204.608" x2="144.487" y2="204.254" gradientUnits="userSpaceOnUse">
<stop stop-color="#FFABAB"/>
<stop offset="0.53" stop-color="#C51515"/>
<stop offset="1" stop-color="#FFABAB"/>
</linearGradient>
<linearGradient id="paint3_linear_297_38" x1="127.027" y1="257.694" x2="153.351" y2="256.993" gradientUnits="userSpaceOnUse">
<stop stop-color="#FFABAB"/>
<stop offset="0.53" stop-color="#C51515"/>
<stop offset="1" stop-color="#FFABAB"/>
</linearGradient>
<linearGradient id="paint4_linear_297_38" x1="141.857" y1="246.309" x2="151.071" y2="245.955" gradientUnits="userSpaceOnUse">
<stop stop-color="#FFABAB"/>
<stop offset="0.53" stop-color="#C51515"/>
<stop offset="1" stop-color="#FFABAB"/>
</linearGradient>
<linearGradient id="paint5_linear_297_38" x1="133.61" y1="299.395" x2="159.935" y2="298.693" gradientUnits="userSpaceOnUse">
<stop stop-color="#FFABAB"/>
<stop offset="0.53" stop-color="#C51515"/>
<stop offset="1" stop-color="#FFABAB"/>
</linearGradient>
<linearGradient id="paint6_linear_297_38" x1="159.415" y1="263.867" x2="168.629" y2="263.513" gradientUnits="userSpaceOnUse">
<stop stop-color="#FFABAB"/>
<stop offset="0.53" stop-color="#C51515"/>
<stop offset="1" stop-color="#FFABAB"/>
</linearGradient>
<linearGradient id="paint7_linear_297_38" x1="151.169" y1="316.953" x2="177.493" y2="316.251" gradientUnits="userSpaceOnUse">
<stop stop-color="#FFABAB"/>
<stop offset="0.53" stop-color="#C51515"/>
<stop offset="1" stop-color="#FFABAB"/>
</linearGradient>
<linearGradient id="paint8_linear_297_38" x1="192.336" y1="217.777" x2="201.55" y2="217.423" gradientUnits="userSpaceOnUse">
<stop stop-color="#FFABAB"/>
<stop offset="0.53" stop-color="#C51515"/>
<stop offset="1" stop-color="#FFABAB"/>
</linearGradient>
<linearGradient id="paint9_linear_297_38" x1="184.09" y1="270.863" x2="210.414" y2="270.162" gradientUnits="userSpaceOnUse">
<stop stop-color="#FFABAB"/>
<stop offset="0.53" stop-color="#C51515"/>
<stop offset="1" stop-color="#FFABAB"/>
</linearGradient>
<linearGradient id="paint10_linear_297_38" x1="176.973" y1="235.335" x2="186.187" y2="234.981" gradientUnits="userSpaceOnUse">
<stop stop-color="#FFABAB"/>
<stop offset="0.53" stop-color="#C51515"/>
<stop offset="1" stop-color="#FFABAB"/>
</linearGradient>
<linearGradient id="paint11_linear_297_38" x1="168.726" y1="288.422" x2="195.051" y2="287.72" gradientUnits="userSpaceOnUse">
<stop stop-color="#FFABAB"/>
<stop offset="0.53" stop-color="#C51515"/>
<stop offset="1" stop-color="#FFABAB"/>
</linearGradient>
<linearGradient id="paint12_linear_297_38" x1="207.7" y1="281.425" x2="216.914" y2="281.071" gradientUnits="userSpaceOnUse">
<stop stop-color="#FFABAB"/>
<stop offset="0.53" stop-color="#C51515"/>
<stop offset="1" stop-color="#FFABAB"/>
</linearGradient>
<linearGradient id="paint13_linear_297_38" x1="199.454" y1="334.511" x2="225.778" y2="333.809" gradientUnits="userSpaceOnUse">
<stop stop-color="#FFABAB"/>
<stop offset="0.53" stop-color="#C51515"/>
<stop offset="1" stop-color="#FFABAB"/>
</linearGradient>
<linearGradient id="paint14_linear_297_38" x1="218.674" y1="327.515" x2="227.888" y2="327.161" gradientUnits="userSpaceOnUse">
<stop stop-color="#FFABAB"/>
<stop offset="0.53" stop-color="#C51515"/>
<stop offset="1" stop-color="#FFABAB"/>
</linearGradient>
<linearGradient id="paint15_linear_297_38" x1="210.427" y1="380.601" x2="236.752" y2="379.9" gradientUnits="userSpaceOnUse">
<stop stop-color="#FFABAB"/>
<stop offset="0.53" stop-color="#C51515"/>
<stop offset="1" stop-color="#FFABAB"/>
</linearGradient>
<linearGradient id="paint16_linear_297_38" x1="119.909" y1="503.096" x2="129.123" y2="502.742" gradientUnits="userSpaceOnUse">
<stop stop-color="#FFABAB"/>
<stop offset="0.53" stop-color="#C51515"/>
<stop offset="1" stop-color="#FFABAB"/>
</linearGradient>
<linearGradient id="paint17_linear_297_38" x1="111.663" y1="556.183" x2="137.987" y2="555.481" gradientUnits="userSpaceOnUse">
<stop stop-color="#FFABAB"/>
<stop offset="0.53" stop-color="#C51515"/>
<stop offset="1" stop-color="#FFABAB"/>
</linearGradient>
<linearGradient id="paint18_linear_297_38" x1="146.247" y1="318.736" x2="155.461" y2="318.382" gradientUnits="userSpaceOnUse">
<stop stop-color="#FFABAB"/>
<stop offset="0.53" stop-color="#C51515"/>
<stop offset="1" stop-color="#FFABAB"/>
</linearGradient>
<linearGradient id="paint19_linear_297_38" x1="138" y1="371.822" x2="164.324" y2="371.121" gradientUnits="userSpaceOnUse">
<stop stop-color="#FFABAB"/>
<stop offset="0.53" stop-color="#C51515"/>
<stop offset="1" stop-color="#FFABAB"/>
</linearGradient>
</defs>
</svg>
